<?xml version="1.0" standalone="no"?>
<!DOCTYPE svg PUBLIC "-//W3C//DTD SVG 20010904//EN"
 "http://www.w3.org/TR/2001/REC-SVG-20010904/DTD/svg10.dtd">
<svg version="1.0" xmlns="http://www.w3.org/2000/svg"
 width="1004.000000pt" height="1004.000000pt" viewBox="0 0 1004.000000 1004.000000"
 preserveAspectRatio="xMidYMid meet">
<metadata>
Created by potrace 1.11, written by Peter Selinger 2001-2013
</metadata>
<g transform="translate(0.000000,1004.000000) scale(0.100000,-0.100000)"
fill="#000000" stroke="none">
<path d="M4387 7244 c-1 -1 -38 -5 -82 -9 -206 -17 -418 -80 -640 -190 -218
-107 -268 -159 -261 -268 2 -23 33 -126 69 -228 l66 -187 -117 -118 c-139
-141 -228 -264 -316 -434 -65 -126 -138 -326 -151 -411 -6 -44 -11 -48 -109
-122 -171 -127 -276 -238 -334 -352 -95 -187 -86 -414 23 -601 28 -48 117
-144 165 -178 25 -17 26 -18 14 -84 -18 -102 -10 -292 16 -385 47 -171 116
-297 225 -415 362 -391 972 -409 1354 -41 63 61 64 61 110 54 171 -25 553 -4
658 36 28 10 28 10 104 -48 156 -120 292 -121 403 -3 25 26 86 114 136 196
188 306 297 419 493 509 71 33 164 61 242 73 53 9 358 9 415 0 162 -24 340
-65 476 -109 l61 -20 6 -53 c6 -64 33 -120 79 -162 58 -55 95 -69 183 -69 69
0 86 4 127 27 155 92 182 294 54 421 -48 48 -100 69 -176 72 -80 4 -150 -25
-202 -83 l-34 -38 -45 14 c-24 7 -51 16 -59 19 -8 3 -24 8 -35 10 -11 2 -31 8
-45 13 -50 19 -269 65 -360 75 -120 13 -156 15 -256 16 -171 0 -335 -32 -489
-97 -19 -8 -19 -7 -4 16 106 163 204 423 235 620 10 64 16 75 89 145 135 131
202 239 231 375 11 53 12 166 2 218 -5 26 -11 58 -14 71 -8 42 -46 123 -82
179 -19 29 -31 59 -28 67 23 62 25 204 4 298 -62 270 -293 455 -571 455 -106
0 -164 -12 -255 -54 l-73 -33 -82 53 c-45 30 -127 75 -182 101 -55 25 -107 50
-115 54 -8 4 -60 22 -116 40 -55 18 -101 37 -101 44 0 39 -15 281 -19 327 -13
126 -54 156 -244 175 -140 15 -433 27 -443 19z m310 -128 c51 -3 108 -8 127
-11 134 -19 127 -14 131 -81 13 -183 16 -296 8 -291 -8 5 -56 12 -158 22 -22
2 -90 4 -151 4 l-111 1 0 41 c0 74 -64 115 -150 95 -30 -7 -31 -6 -38 36 -5
28 -18 52 -38 71 -28 26 -37 28 -76 24 -67 -7 -93 -43 -88 -120 l3 -58 -43
-11 c-77 -19 -118 -101 -78 -154 8 -10 15 -22 15 -25 0 -3 -30 -19 -67 -34
-90 -38 -205 -99 -276 -147 -32 -22 -61 -37 -65 -33 -10 10 -113 307 -118 339
-6 42 37 76 200 156 217 107 400 160 611 176 44 3 81 7 82 8 4 4 185 -1 280
-8z m1777 -1633 c34 -108 26 -219 -22 -308 -31 -57 -49 -67 -46 -28 1 16 -4
64 -11 108 -7 44 -16 96 -19 116 -3 20 -8 44 -12 53 -5 13 6 29 42 61 27 24
50 44 51 45 1 0 8 -21 17 -47z m-3563 -506 c1 -65 0 -68 -39 -109 -49 -50 -88
-128 -95 -188 -6 -54 22 -149 61 -199 l25 -34 -26 -46 c-14 -25 -31 -46 -38
-46 -23 0 -87 97 -109 164 -55 173 -18 301 132 450 45 44 83 79 85 78 2 -2 4
-34 4 -70z m2684 -1496 c-80 -132 -141 -191 -197 -191 -27 0 -130 50 -135 65
-2 6 19 19 47 29 61 22 224 105 276 140 21 14 40 24 42 21 2 -2 -12 -31 -33
-64z"/>
<path d="M6912 7165 c-253 -71 -384 -361 -267 -595 49 -96 146 -180 250 -215
142 -47 317 -4 424 104 208 211 145 557 -125 683 -78 36 -199 46 -282 23z"/>
</g>
</svg>
